<svg width="60" height="90" viewBox="0 0 60 90" fill="none" xmlns="http://www.w3.org/2000/svg">
<g clip-path="url(#clip0_45_191)">
<path d="M0.422864 82.5309C0.145551 82.3384 0.0588911 81.9533 0.249544 81.6557C0.440196 81.3756 0.821501 81.2881 1.11615 81.4806C1.28947 81.6032 1.48012 81.7257 1.6881 81.8482C3.10933 82.7235 4.4439 83.1611 5.53582 83.1611C6.52374 83.1611 7.33835 82.776 7.84098 82.0233C7.87564 81.9708 7.91031 81.9358 7.91031 81.9007C8.04896 81.6557 8.17029 81.4106 8.23962 81.1655C8.37827 80.6579 8.36094 80.1328 8.15296 79.6601C7.94497 79.1525 7.51167 78.6798 6.85305 78.2772C6.41975 78.0147 5.86513 77.7696 5.20651 77.577C3.5253 77.1044 2.29472 76.4217 1.61878 75.529C0.890829 74.5312 0.838833 73.3408 1.61878 71.8879C2.13874 70.9252 3.19599 70.33 4.54789 70.225C5.70914 70.1374 7.11303 70.4175 8.53426 71.1527C8.84624 71.3103 8.96756 71.6954 8.81157 71.993C8.65559 72.308 8.27428 72.4306 7.97964 72.273C6.76639 71.6429 5.60515 71.4153 4.65188 71.4853C3.73328 71.5553 3.02267 71.9229 2.72803 72.5006C2.20806 73.4634 2.20806 74.2161 2.64137 74.7937C3.12666 75.4589 4.14925 75.9841 5.55315 76.3867C6.31576 76.5968 6.95705 76.8943 7.49434 77.2269C8.37827 77.7696 8.96756 78.4523 9.27954 79.1875C9.60885 79.9402 9.64351 80.7629 9.41819 81.5331C9.3142 81.8832 9.15821 82.2508 8.95023 82.5834C8.89823 82.6535 8.86357 82.7235 8.84624 82.7585C8.10096 83.8788 6.92238 84.439 5.50115 84.439C4.18392 84.439 2.64137 83.9488 1.01215 82.951C0.856165 82.811 0.648181 82.6885 0.422864 82.5309ZM11.498 70.8201C11.498 70.4875 11.7754 70.225 12.122 70.225C12.4686 70.225 12.7459 70.4875 12.7459 70.8201V83.8263C12.7459 84.1589 12.4686 84.4215 12.122 84.4215C11.7754 84.4215 11.498 84.1589 11.498 83.8263V70.8201Z" fill="#EA501F"/>
<path d="M12.7806 78.9246C12.5553 79.1871 12.174 79.2396 11.8967 79.0121C11.6367 78.7845 11.5847 78.3994 11.81 78.1193C12.7633 76.9465 13.8379 76.2288 14.8951 75.9137C15.6577 75.6861 16.403 75.6686 17.0443 75.8437C17.7202 76.0362 18.3095 76.4213 18.7255 77.0165C19.1241 77.5767 19.3495 78.2944 19.3495 79.1521V83.8084C19.3495 84.1585 19.0721 84.4386 18.7255 84.4386C18.3789 84.4386 18.1016 84.1585 18.1016 83.8084V79.1521C18.1016 78.5569 17.9629 78.0843 17.7202 77.7342C17.4776 77.4016 17.1483 77.1741 16.7323 77.0515C16.299 76.929 15.7964 76.9465 15.2591 77.104C14.4272 77.3666 13.5606 77.9618 12.7806 78.9246ZM25.4677 75.7212C26.6636 75.7212 27.7382 76.2113 28.5181 76.999C29.2981 77.7867 29.7834 78.872 29.7834 80.0799C29.7834 81.2877 29.2981 82.373 28.5181 83.1607C27.7382 83.9485 26.6636 84.4386 25.4677 84.4386C24.2718 84.4386 23.1972 83.9485 22.4172 83.1607C21.6373 82.373 21.152 81.2877 21.152 80.0799C21.152 78.872 21.6373 77.7867 22.4172 76.999C23.1972 76.2113 24.2891 75.7212 25.4677 75.7212ZM27.6515 77.8743C27.0969 77.3141 26.3169 76.964 25.4677 76.964C24.6184 76.964 23.8558 77.3141 23.2838 77.8743C22.7292 78.4344 22.3826 79.2221 22.3826 80.0799C22.3826 80.9376 22.7292 81.7253 23.2838 82.2855C23.8385 82.8457 24.6184 83.1958 25.4677 83.1958C26.3169 83.1958 27.0796 82.8457 27.6515 82.2855C28.2061 81.7253 28.5528 80.9376 28.5528 80.0799C28.5528 79.2221 28.2061 78.4344 27.6515 77.8743ZM31.5512 76.3513C31.5512 76.0012 31.8285 75.7212 32.1752 75.7212C32.5218 75.7212 32.7991 76.0012 32.7991 76.3513V77.139C32.8511 77.0865 32.8858 77.034 32.9378 76.999C33.7177 76.2113 34.7923 75.7212 35.9882 75.7212C37.1841 75.7212 38.2587 76.2113 39.0387 76.999C39.8186 77.7867 40.3039 78.872 40.3039 80.0799C40.3039 81.2877 39.8186 82.373 39.0387 83.1607C38.2587 83.9485 37.1841 84.4386 35.9882 84.4386C34.7923 84.4386 33.7177 83.9485 32.9378 83.1607C32.8858 83.1082 32.8511 83.0557 32.7991 83.0207V88.7448C32.7991 89.0949 32.5218 89.375 32.1752 89.375C31.8285 89.375 31.5512 89.0949 31.5512 88.7448V76.3513ZM38.1547 77.8743C37.6001 77.3141 36.8202 76.964 35.9709 76.964C35.1216 76.964 34.359 77.3141 33.7871 77.8743C33.2324 78.4344 32.8858 79.2221 32.8858 80.0799C32.8858 80.9376 33.2324 81.7253 33.7871 82.2855C34.3417 82.8457 35.1216 83.1958 35.9709 83.1958C36.8202 83.1958 37.5828 82.8457 38.1547 82.2855C38.7094 81.7253 39.056 80.9376 39.056 80.0799C39.056 79.2221 38.7094 78.4344 38.1547 77.8743ZM46.1621 75.7212C47.2194 75.7212 48.19 76.1413 48.9006 76.8765C49.4899 77.4716 49.7325 78.0668 49.9405 78.697C50.4778 80.465 49.4552 80.395 49.1432 80.395H43.4063C43.4583 80.8151 43.5623 81.2002 43.6836 81.5503C43.909 82.0929 44.2383 82.4956 44.6542 82.7756C45.0875 83.0557 45.6422 83.1958 46.2835 83.1958C46.9767 83.1958 47.7913 83.0032 48.6926 82.6181C49.0046 82.4781 49.3686 82.6356 49.5072 82.9507C49.6459 83.2658 49.4899 83.6334 49.1779 83.7734C48.138 84.211 47.1674 84.4211 46.3008 84.4386C45.4169 84.4561 44.6369 84.246 43.9956 83.8259C43.3543 83.4058 42.7997 82.8282 42.5397 82.0229C41.9504 80.2549 41.9331 78.5044 43.4237 76.8765C44.1169 76.1238 45.1049 75.7212 46.1621 75.7212ZM48.034 77.7692C47.5314 77.2791 46.8727 76.9815 46.1621 76.9815C45.4515 76.9815 44.7929 77.2791 44.2903 77.7692C43.9263 78.1368 43.6317 78.592 43.4757 79.1171H48.8659C48.6753 78.592 48.398 78.1368 48.034 77.7692ZM55.6254 75.7212C56.6827 75.7212 57.6533 76.1413 58.3639 76.8765C58.9532 77.4716 59.1958 78.0668 59.4038 78.697C59.9411 80.465 58.9185 80.395 58.6065 80.395H52.8696C52.9216 80.8151 53.0256 81.2002 53.1469 81.5503C53.3723 82.0929 53.7016 82.4956 54.1175 82.7756C54.5508 83.0557 55.1055 83.1958 55.7468 83.1958C56.44 83.1958 57.2546 83.0032 58.1559 82.6181C58.4679 82.4781 58.8319 82.6356 58.9705 82.9507C59.1092 83.2658 58.9532 83.6334 58.6412 83.7734C57.6013 84.211 56.6307 84.4211 55.7641 84.4386C54.8801 84.4561 54.1002 84.246 53.4589 83.8259C52.8176 83.4058 52.263 82.8282 52.003 82.0229C51.4137 80.2549 51.3964 78.5044 52.887 76.8765C53.5802 76.1238 54.5682 75.7212 55.6254 75.7212ZM57.4973 77.7692C56.9947 77.2791 56.336 76.9815 55.6254 76.9815C54.9148 76.9815 54.2562 77.2791 53.7536 77.7692C53.3896 78.1368 53.095 78.592 52.939 79.1171H58.3292C58.1386 78.592 57.8613 78.1368 57.4973 77.7692ZM4.80788 18.8126H17.8589C18.2575 14.3489 19.4881 10.3402 21.256 7.24186C23.5958 3.14571 26.9236 0.625 30.6846 0.625C34.4457 0.625 37.7561 3.16321 40.1132 7.24186C41.8811 10.3227 43.1117 14.3489 43.5103 18.8126H56.544C58.0866 18.8126 59.4731 20.0905 59.3518 21.6484L56.7347 58.5313C56.4054 63.1526 53.5283 65.7959 49.3512 65.7959H12.018C7.37302 65.7959 4.91187 62.5224 4.63456 58.5313L2.00009 21.6659C1.89609 20.108 3.26533 18.8126 4.80788 18.8126ZM21.1173 18.8126H40.2172C39.8359 14.944 38.7787 11.5131 37.2708 8.88733C35.5376 5.82396 33.1804 3.91593 30.6846 3.91593C28.1715 3.91593 25.8316 5.82396 24.0638 8.90483C22.5559 11.5131 21.516 14.9615 21.1173 18.8126Z" fill="#EA501F"/>
<path d="M21.204 52.8594C20.5974 52.4393 20.4414 51.6166 20.8573 51.0039C21.2733 50.3912 22.0879 50.2337 22.6945 50.6538C23.0758 50.9164 23.4745 51.179 23.9078 51.4415C26.9582 53.3146 29.766 54.2423 32.1058 54.2423C34.2203 54.2423 35.9362 53.4371 37.0281 51.8091C37.0975 51.6866 37.1668 51.6166 37.1841 51.5641C37.4961 51.0564 37.7214 50.5138 37.8774 49.9886C38.1894 48.9033 38.1374 47.783 37.7041 46.7677C37.2361 45.6999 36.3349 44.6671 34.931 43.8094C33.995 43.2317 32.8338 42.7241 31.4299 42.339C27.8595 41.3237 25.225 39.8883 23.8038 37.9627C22.2439 35.8446 22.1226 33.2889 23.7865 30.1905C24.8957 28.1425 27.1662 26.8646 30.0433 26.637C32.5218 26.4445 35.5029 27.0397 38.536 28.5976C39.1946 28.9302 39.4546 29.7354 39.108 30.4006C38.7613 31.0658 37.9814 31.3284 37.3228 30.9783C34.7403 29.6479 32.2792 29.1402 30.234 29.2978C28.2755 29.4553 26.7849 30.2255 26.1263 31.4509C25.017 33.499 25.0344 35.1094 25.9356 36.3348C26.9756 37.7527 29.1421 38.8555 32.1578 39.7132C33.787 40.1859 35.1736 40.781 36.3175 41.4812C38.2067 42.6365 39.472 44.0895 40.1479 45.6649C40.8412 47.2929 40.9278 49.0083 40.4599 50.6888C40.2519 51.4415 39.9226 52.1942 39.472 52.9294C39.368 53.087 39.2986 53.2095 39.2466 53.297C37.6348 55.6952 35.1563 56.8856 32.1405 56.9031C29.3154 56.9031 26.0223 55.8528 22.5559 53.7172C22.1226 53.4721 21.672 53.192 21.204 52.8594Z" fill="white"/>
</g>
<defs>
<clipPath id="clip0_45_191">
<rect width="60" height="88.75" fill="white" transform="translate(0 0.625)"/>
</clipPath>
</defs>
</svg>
