<svg width="81" height="81" viewBox="0 0 81 81" fill="none" xmlns="http://www.w3.org/2000/svg">
<g clip-path="url(#clip0_45_127)">
<path d="M19.9958 49.8149L48.4145 21.1797L60.9422 31.4451L31.3535 61.2591C29.2087 63.4203 22.8881 54.5301 19.9958 49.8149Z" fill="#F6F6F6"/>
<path d="M19.7034 22.1131L17.6074 15.8262L23.9931 11.2091L29.3551 15.1385C29.901 14.5884 33.1897 13.6978 34.7659 13.3212L36.2769 7.23069C39.0555 7.03422 44.6124 6.75917 44.6124 7.23069C44.6124 7.70221 45.0674 8.70418 45.2949 9.14626C43.1111 12.2504 43.2801 18.4621 43.6376 21.1799C18.8748 20.2467 20.8733 42.4967 20.8733 43.3316C19.1575 42.3493 14.7314 42.9223 12.7328 43.3316V37.9287L7.22455 33.9503C7.57552 30.8068 9.1906 27.5979 9.95428 26.3863H16.4862C17.1102 25.2075 18.891 23.0463 19.7034 22.1131Z" fill="#FFF1F0"/>
<path d="M61.1861 58.7051L63.2821 64.9921L56.8964 69.6091L51.5344 65.6797C50.9885 66.2299 47.6998 67.1205 46.1237 67.4971L44.6126 73.5875C41.834 73.784 36.2771 74.0591 36.2771 73.5875C36.2771 73.116 35.8221 72.114 35.5946 71.672C37.7784 68.5678 37.6095 62.3562 37.252 59.6383C62.0148 60.5715 60.0162 38.3216 60.0162 37.4866C61.732 38.469 66.1581 37.8959 68.1568 37.4866V42.8895L73.665 46.8679C73.314 50.0115 71.6989 53.2204 70.9352 54.4319H64.4033C63.7794 55.6107 61.9985 57.7719 61.1861 58.7051Z" fill="#FFF1F0"/>
<path d="M58.1636 12.3386L68.8389 1.77854C62.9415 -0.529632 58.8473 0.943174 58.1639 1.18903C42.8578 7.13213 45.376 22.2603 49.0482 27.7614C55.1706 37.1918 65.313 36.0131 69.6188 34.2448C81.6296 29.2546 81.22 17.5614 79.5142 12.3386L68.8389 23.0953L58.1636 12.3386Z" fill="#F6F6F6"/>
<path d="M22.6364 68.6613L11.9611 79.2214C17.8585 81.5296 21.9527 80.0568 22.6362 79.8109C37.9422 73.8678 35.424 58.7396 31.7518 53.2386C25.6294 43.8081 15.487 44.9869 11.1812 46.7552C-0.829736 51.7454 -0.420271 63.4385 1.28583 68.6613L11.9611 57.9047L22.6364 68.6613Z" fill="#F6F6F6"/>
<path d="M57.7739 34.6379C49.7016 31.5336 47.326 25.2892 47.1473 22.6533L41.3325 28.1544C41.3325 36.799 49.7818 38.6654 54.0064 38.4199L57.7739 34.6379Z" fill="#FFF1F0"/>
<path d="M23.3591 46.4259C31.4314 49.53 33.7583 56.02 33.937 58.6559L39.5567 53.0772C39.5567 44.4327 31.191 42.5456 26.9663 42.7911L23.3591 46.4259Z" fill="#FFF1F0"/>
</g>
<defs>
<clipPath id="clip0_45_127">
<rect width="80" height="80" fill="white" transform="translate(0.400024 0.5)"/>
</clipPath>
</defs>
</svg>
