<svg width="81" height="81" viewBox="0 0 81 81" fill="none" xmlns="http://www.w3.org/2000/svg">
<path d="M7.06671 43.4334V37.5668C7.06671 34.1001 9.90005 31.2334 13.4 31.2334C19.4334 31.2334 21.9 26.9668 18.8667 21.7334C17.1334 18.7334 18.1667 14.8334 21.2 13.1001L26.9667 9.80011C29.6 8.23345 33 9.16678 34.5667 11.8001L34.9334 12.4334C37.9334 17.6668 42.8667 17.6668 45.9 12.4334L46.2667 11.8001C47.8334 9.16678 51.2334 8.23345 53.8667 9.80011L59.6334 13.1001C62.6667 14.8334 63.7 18.7334 61.9667 21.7334C58.9334 26.9668 61.4 31.2334 67.4334 31.2334C70.9 31.2334 73.7667 34.0668 73.7667 37.5668V43.4334C73.7667 46.9001 70.9334 49.7668 67.4334 49.7668C61.4 49.7668 58.9334 54.0334 61.9667 59.2668C63.7 62.3001 62.6667 66.1668 59.6334 67.9001L53.8667 71.2001C51.2334 72.7668 47.8334 71.8334 46.2667 69.2001L45.9 68.5668C42.9 63.3334 37.9667 63.3334 34.9334 68.5668L34.5667 69.2001C33 71.8334 29.6 72.7668 26.9667 71.2001L21.2 67.9001C18.1667 66.1668 17.1334 62.2668 18.8667 59.2668C21.9 54.0334 19.4334 49.7668 13.4 49.7668C9.90005 49.7668 7.06671 46.9001 7.06671 43.4334Z" fill="#FFF1F0"/>
<path d="M40.4 50.5C45.9229 50.5 50.4 46.0228 50.4 40.5C50.4 34.9772 45.9229 30.5 40.4 30.5C34.8772 30.5 30.4 34.9772 30.4 40.5C30.4 46.0228 34.8772 50.5 40.4 50.5Z" fill="#D70700"/>
</svg>
