<svg width="20" height="21" viewBox="0 0 20 21" fill="none" xmlns="http://www.w3.org/2000/svg">
<path d="M17.0498 3.40999C16.1329 2.4841 15.0408 1.74996 13.8373 1.25036C12.6338 0.750751 11.3429 0.495676 10.0398 0.499993C4.5798 0.499993 0.129805 4.94999 0.129805 10.41C0.129805 12.16 0.589805 13.86 1.4498 15.36L0.0498047 20.5L5.2998 19.12C6.7498 19.91 8.3798 20.33 10.0398 20.33C15.4998 20.33 19.9498 15.88 19.9498 10.42C19.9498 7.76999 18.9198 5.27999 17.0498 3.40999ZM10.0398 18.65C8.5598 18.65 7.1098 18.25 5.8398 17.5L5.5398 17.32L2.4198 18.14L3.2498 15.1L3.0498 14.79C2.22735 13.4771 1.79073 11.9593 1.7898 10.41C1.7898 5.86999 5.4898 2.16999 10.0298 2.16999C12.2298 2.16999 14.2998 3.02999 15.8498 4.58999C16.6174 5.35386 17.2257 6.26254 17.6394 7.26332C18.0531 8.26411 18.264 9.33708 18.2598 10.42C18.2798 14.96 14.5798 18.65 10.0398 18.65ZM14.5598 12.49C14.3098 12.37 13.0898 11.77 12.8698 11.68C12.6398 11.6 12.4798 11.56 12.3098 11.8C12.1398 12.05 11.6698 12.61 11.5298 12.77C11.3898 12.94 11.2398 12.96 10.9898 12.83C10.7398 12.71 9.9398 12.44 8.9998 11.6C8.2598 10.94 7.7698 10.13 7.6198 9.87999C7.4798 9.62999 7.5998 9.49999 7.7298 9.36999C7.8398 9.25999 7.9798 9.07999 8.0998 8.93999C8.2198 8.79999 8.2698 8.68999 8.3498 8.52999C8.4298 8.35999 8.3898 8.21999 8.3298 8.09999C8.2698 7.97999 7.7698 6.75999 7.5698 6.25999C7.3698 5.77999 7.1598 5.83999 7.0098 5.82999H6.5298C6.3598 5.82999 6.0998 5.88999 5.8698 6.13999C5.6498 6.38999 5.0098 6.98999 5.0098 8.20999C5.0098 9.42999 5.89981 10.61 6.0198 10.77C6.1398 10.94 7.7698 13.44 10.2498 14.51C10.8398 14.77 11.2998 14.92 11.6598 15.03C12.2498 15.22 12.7898 15.19 13.2198 15.13C13.6998 15.06 14.6898 14.53 14.8898 13.95C15.0998 13.37 15.0998 12.88 15.0298 12.77C14.9598 12.66 14.8098 12.61 14.5598 12.49Z" fill="white"/>
</svg>
