<svg width="229" height="50" viewBox="0 0 229 50" fill="none" xmlns="http://www.w3.org/2000/svg">
<g clip-path="url(#clip0_45_196)">
<path fill-rule="evenodd" clip-rule="evenodd" d="M122.295 35.0512C119.81 37.5886 116.836 38.8638 113.389 38.8638C110.602 38.8638 108.233 38.2923 105.816 36.8797V31.0634C107.76 32.3898 110.204 33.653 112.613 33.653C117.64 33.653 120.633 30.173 120.633 25.2414C120.633 20.3057 117.538 16.7223 112.508 16.7223C110.262 16.7223 108.441 17.5346 107.019 19.1625C105.494 20.9261 104.706 23.4468 104.706 26.7797V49.7468H104.328C101.556 49.7468 99.3112 47.4886 99.3112 44.7019V25.9175C99.3112 17.9464 104.156 11.5103 112.484 11.5103C116.596 11.5103 119.935 12.9246 122.468 15.7658C124.848 18.4204 126.028 21.7837 126.028 25.8313C126.028 29.4331 124.783 32.5121 122.295 35.0512ZM180.707 34.8565C178.231 37.5305 175.045 38.8638 171.181 38.8638C167.102 38.8638 163.779 37.4495 161.25 34.6089C158.871 31.9216 157.69 28.5553 157.69 24.5445C157.69 17.4444 163.139 11.5103 170.309 11.5103C173.075 11.5103 175.476 12.098 177.902 13.4359V19.313C175.957 17.9861 173.514 16.7229 171.105 16.7229C166.078 16.7229 163.084 20.2023 163.084 25.1357C163.084 30.0018 166.251 33.6536 171.207 33.6536C173.452 33.6536 175.3 32.8074 176.779 31.103C178.248 29.4101 179.012 26.9222 179.012 23.58V5.29822C179.012 2.511 181.258 0.253418 184.028 0.253418H184.407V24.4371C184.407 28.6961 183.181 32.1824 180.707 34.8565ZM195.942 8.92931C195.376 9.56695 194.564 9.8605 193.575 9.8605C191.722 9.8605 190.397 8.48699 190.397 6.63841C190.397 4.74675 191.698 3.46976 193.574 3.46976C195.38 3.46976 196.751 4.81626 196.751 6.63841C196.751 7.5403 196.488 8.31293 195.942 8.92931ZM223.354 23.5795C223.354 21.4402 222.549 19.7468 220.933 18.464C219.476 17.3094 217.658 16.7223 215.445 16.7223C210.562 16.7223 207.427 20.5613 207.427 25.2954C207.427 29.8507 210.75 33.653 215.393 33.653C218.623 33.653 220.35 31.7556 222.192 29.3917V36.207C221.254 36.9141 220.175 37.6851 219.073 38.1377C217.91 38.626 216.522 38.8638 214.918 38.8638C207.153 38.8638 202.032 32.3955 202.032 24.9202C202.032 21.0818 203.217 17.9085 205.604 15.4338C208.136 12.8114 211.458 11.5103 215.524 11.5103C223.234 11.5103 228.75 15.9629 228.75 24.008V38.3279H228.373C225.6 38.3279 223.354 36.0691 223.354 33.2819V23.5795ZM149.502 22.0423C148.82 19.922 147.965 18.8782 146 17.7741C141.324 15.1471 136.723 17.3835 134.582 22.0221L149.502 22.0423ZM145.385 38.784C141.939 39.5204 138.558 38.9523 135.259 37.098C132.041 35.2908 129.886 32.6029 128.806 29.0511C126.622 21.8676 131.095 13.8627 138.291 11.9245C141.858 10.964 145.277 11.3989 148.526 13.2245C153.922 16.2587 155.889 20.9514 155.545 26.998L133.811 26.9544C134.131 29.4205 135.651 31.35 137.788 32.5501C139.954 33.7679 141.946 34.0586 143.793 33.4824C145.846 32.8344 147.51 31.1501 148.864 29.5819L153.293 32.8281C151.486 36.0795 149.027 38.0039 145.385 38.784ZM190.877 12.0474H196.271V38.3273H195.892C193.123 38.3273 190.876 36.0686 190.876 33.2813L190.877 12.0474ZM7.89531 38.3273C2.61862 38.3273 0 34.718 0 29.6761V10.5527C0 7.76663 2.24632 5.50732 5.01706 5.50732H5.39564V12.048H14.5108V17.2594H5.39507V30.281C5.39507 32.4955 6.37812 33.117 8.48148 33.117H14.5108V38.3284L7.89531 38.3273ZM39.2266 35.0053C36.5617 37.5753 33.358 38.8633 29.6363 38.8633C25.9494 38.8633 22.7641 37.5742 20.0991 35.0053C17.425 32.426 16.092 29.143 16.092 25.1874C16.092 17.4691 21.9514 11.5109 29.6363 11.5109C33.3249 11.5109 36.5188 12.8091 39.2003 15.397C41.891 17.9924 43.2355 21.2656 43.2355 25.1874C43.2355 29.143 41.9007 32.4254 39.2266 35.0053ZM64.4503 18.371C63.6588 19.706 63.0452 20.663 62.6134 21.2415C62.1376 21.8705 61.6676 22.3731 61.2021 22.7201C64.9513 23.9379 66.3478 26.5505 66.3478 30.4424V38.3273H65.9692C63.1985 38.3273 60.9522 36.0686 60.9522 33.2813V30.9772C60.9522 28.4571 59.8284 26.7476 57.1738 26.7476H52.2745V38.3273H51.8954C49.1252 38.3273 46.8806 36.0686 46.8806 33.2813V5.29822C46.8806 2.511 49.1252 0.253418 51.8959 0.253418H52.2745V21.4833H53.8689C55.6211 21.4833 56.7723 20.8801 57.4334 19.7399L61.9649 12.0486L68.1126 12.0428L64.4503 18.371ZM92.2995 35.0058C89.6334 37.5759 86.4297 38.8638 82.7086 38.8638C79.0223 38.8638 75.8369 37.5748 73.1708 35.0058C70.4967 32.4266 69.1637 29.1436 69.1637 25.1879C69.1637 17.4696 75.0237 11.5115 82.7086 11.5115C86.3972 11.5115 89.5905 12.8097 92.2726 15.3976C94.9638 17.993 96.3072 21.2662 96.3072 25.1879C96.3072 29.1436 94.9736 32.426 92.2995 35.0058ZM88.405 19.0718C86.9181 17.5076 85.0298 16.7223 82.7086 16.7223C77.7441 16.7223 74.7715 20.3626 74.7715 25.1879C74.7715 29.9461 77.8145 33.653 82.7086 33.653C87.6038 33.653 90.6456 29.9461 90.6456 25.1879C90.6456 22.6615 89.8907 20.6343 88.4056 19.0718H88.405ZM35.3333 19.0718C33.8464 17.5076 31.9581 16.7223 29.6374 16.7223C24.6724 16.7223 21.7004 20.3626 21.7004 25.1879C21.7004 29.9461 24.7427 33.653 29.6369 33.653C34.5321 33.653 37.5733 29.9461 37.5733 25.1879C37.5733 22.6615 36.8196 20.6343 35.3333 19.0718Z" fill="#42B549"/>
</g>
<defs>
<clipPath id="clip0_45_196">
<rect width="228.75" height="50" fill="white"/>
</clipPath>
</defs>
</svg>
