<svg width="80" height="80" viewBox="0 0 80 80" fill="none" xmlns="http://www.w3.org/2000/svg">
<path d="M21.0674 69.1894L22.3746 69.838C27.7046 72.9843 33.7982 74.6288 39.9997 74.5947C59.0912 74.5515 74.7773 58.9472 74.7773 40.0003C74.7773 30.8437 71.1128 22.0502 64.5965 15.568C58.0889 9.01891 49.198 5.32812 39.9322 5.32812C20.928 5.32812 5.29188 20.8481 5.29188 39.7063C5.29188 39.8555 5.29188 40.0025 5.29407 40.1517C5.3513 46.5634 7.15826 52.8398 10.5228 58.3137L11.3942 59.611L7.90844 72.3677L21.0674 69.1894Z" fill="#00E676"/>
<path d="M68.4746 11.6762C61.0563 4.16481 50.8798 -0.0491481 40.283 0.000432622H40.2154C18.3921 0.000500355 0.433591 17.8232 0.433591 39.4813C0.433591 39.5829 0.435775 39.6824 0.435775 39.7841C0.517975 46.6701 2.31418 53.4291 5.66453 59.4596L0 80L21.111 74.5946C26.943 77.7722 33.4995 79.4101 40.1523 79.3514C62.0563 79.2324 80.0126 61.3083 79.9995 39.5678C80.0518 29.1225 75.9015 19.0772 68.4746 11.6762ZM40.283 72.6487C34.3857 72.6792 28.5923 71.1091 23.5293 68.1082L22.2221 67.4595L9.65134 70.7028L12.9193 58.3785L12.0479 57.0812C8.81084 51.894 7.09588 45.9136 7.0958 39.8122C7.0958 21.8188 22.0151 7.01232 40.1458 7.01232C58.2763 7.01232 73.1956 21.8188 73.1956 39.8122C73.1956 51.1418 67.2807 61.6975 57.5814 67.6757C52.4515 70.9369 46.484 72.6633 40.392 72.6487M59.5422 48.6488L57.1456 47.5678C57.1456 47.5678 53.6598 46.0542 51.4812 44.9732C51.2633 44.9732 51.0455 44.757 50.8275 44.757C50.2904 44.7702 49.7656 44.919 49.3025 45.1894C48.8385 45.4597 49.0847 45.4056 46.0346 48.865C45.8276 49.2694 45.4028 49.5224 44.9453 49.5137H44.7274C44.3999 49.4593 44.0963 49.3087 43.856 49.0813L42.7666 48.6488C40.4293 47.6668 38.2892 46.2753 36.4485 44.5408C36.0128 44.1083 35.3593 43.6759 34.9235 43.2435C33.3107 41.7101 31.9179 39.9641 30.7841 38.0543L30.5662 37.6219C30.377 37.3576 30.23 37.0659 30.1305 36.757C30.0735 36.3825 30.1506 36 30.3484 35.676C30.5466 35.3516 31.2199 34.5949 31.8734 33.9463C32.527 33.2976 32.527 32.8652 32.9628 32.4328C33.1867 32.1241 33.3414 31.7714 33.4166 31.3985C33.4918 31.0255 33.4856 30.6409 33.3985 30.2706C32.3831 27.4728 31.2196 24.7303 29.9127 22.0545C29.5624 21.5138 29.0166 21.1269 28.3876 20.9734H25.9911C25.5554 20.9734 25.1197 21.1896 24.6839 21.1896L24.4661 21.4058C24.0304 21.622 23.5946 22.0545 23.1589 22.2707C22.7232 22.4869 22.5053 23.1355 22.0696 23.568C20.5465 25.478 19.7038 27.835 19.6731 30.2706C19.6972 31.9839 20.0676 33.6749 20.7623 35.2435L20.9803 35.8922C22.9365 40.043 25.6723 43.7855 29.0413 46.9191L29.9127 47.784C30.5468 48.3053 31.1303 48.8844 31.6556 49.5137C36.1697 53.4121 41.5313 56.2228 47.32 57.7299C47.9735 57.9461 48.845 57.9461 49.4986 58.1623H51.6773C52.8159 58.1066 53.9298 57.8118 54.9452 57.2974C55.4789 57.0575 55.9887 56.7678 56.4702 56.4326L56.906 56.0001C57.3417 55.5677 57.7774 55.3515 58.2131 54.9191C58.639 54.5426 59.0061 54.1054 59.3025 53.6218C59.7208 52.6532 60.0149 51.637 60.174 50.5948V49.0813C59.9782 48.9067 59.758 48.7611 59.5203 48.6488" fill="white"/>
</svg>
