<svg width="81" height="81" viewBox="0 0 81 81" fill="none" xmlns="http://www.w3.org/2000/svg">
<path d="M13.1388 21.5493C13.2883 19.768 14.6991 18.4167 16.4678 18.1569C19.3362 17.7355 23.6973 17.0001 26.9382 16.0298C30.6955 14.905 35.9586 12.5633 38.6557 11.3188C39.7622 10.8081 41.0378 10.8081 42.1443 11.3188C44.8414 12.5633 50.1045 14.905 53.8618 16.0298C57.1027 17.0001 61.4638 17.7355 64.3322 18.1569C66.1009 18.4167 67.5117 19.768 67.6612 21.5493C68.4746 31.238 68.7469 61.6369 41.5063 70.1699C40.7981 70.3917 40.0019 70.3917 39.2937 70.1699C12.0531 61.6369 12.3254 31.238 13.1388 21.5493Z" fill="#FFF1F0"/>
<path d="M17.9 25.3988V29.5036C17.9 31.0163 20.0856 31.2285 20.3767 29.7442L20.8431 27.3653C20.9603 26.7675 21.2919 26.233 21.7753 25.8623L24.2019 24.002C25.3297 23.1372 24.3698 21.3606 23.0284 21.8301L19.5742 23.0391C18.5715 23.39 17.9 24.3364 17.9 25.3988Z" fill="#D70700"/>
<path d="M23.0744 27.6683C23.1682 26.5994 24.0134 25.7862 25.0751 25.6306C26.9595 25.3546 29.9488 24.8538 32.1524 24.1866C34.6736 23.4232 38.2232 21.819 39.97 21.0017C40.6391 20.6886 41.411 20.6886 42.0801 21.0017C43.8269 21.819 47.3764 23.4232 49.8976 24.1866C52.1012 24.8538 55.0906 25.3546 56.975 25.6306C58.0367 25.7862 58.8819 26.5994 58.9757 27.6683C59.5236 33.9068 59.8966 54.5756 41.6964 60.2982C41.2669 60.4332 40.7832 60.4332 40.3537 60.2982C22.1535 54.5756 22.5265 33.9068 23.0744 27.6683Z" fill="#D70700"/>
<path d="M27.9912 31.3269C28.0672 30.2555 28.9115 29.4405 29.972 29.2706C31.3268 29.0535 33.1867 28.7083 34.6 28.2651C36.2814 27.7378 38.5944 26.6755 39.9376 26.0322C40.6252 25.7028 41.4249 25.7028 42.1124 26.0322C43.4556 26.6755 45.7687 27.7378 47.45 28.2651C48.8634 28.7083 50.7232 29.0535 52.078 29.2706C53.1386 29.4405 53.9828 30.2555 54.0589 31.3269C54.4227 36.4493 54.296 51.0294 41.7144 55.2813C41.2732 55.4304 40.7768 55.4304 40.3357 55.2813C27.7541 51.0294 27.6274 36.4493 27.9912 31.3269Z" stroke="#FFF1F0" stroke-width="2"/>
</svg>
