<svg width="81" height="81" viewBox="0 0 81 81" fill="none" xmlns="http://www.w3.org/2000/svg">
<path d="M77.5668 47.1667V57.1667C77.5668 58.0508 77.2156 58.8987 76.5904 59.5238C75.9653 60.1489 75.1175 60.5001 74.2334 60.5001H7.56673C6.68267 60.5001 5.83483 60.1489 5.20971 59.5238C4.58458 58.8987 4.2334 58.0508 4.2334 57.1667V47.1667H77.5668Z" fill="#E02B20"/>
<path d="M77.5668 10.5001V47.1667H4.2334V10.5001C4.2334 9.61602 4.58458 8.76818 5.20971 8.14306C5.83483 7.51794 6.68267 7.16675 7.56673 7.16675H74.2334C75.1175 7.16675 75.9653 7.51794 76.5904 8.14306C77.2156 8.76818 77.5668 9.61602 77.5668 10.5001Z" fill="#FFF1F0"/>
<path d="M55.9 73.8334H25.9C27.4856 72.2494 28.7434 70.3683 29.6013 68.2978C30.4593 66.2273 30.9006 64.0079 30.9 61.7666V60.5H50.9V61.7666C50.9025 66.2924 52.7008 70.6322 55.9 73.8334Z" fill="#E02B20"/>
<path d="M24.2334 28.8334C26.0743 28.8334 27.5667 27.3411 27.5667 25.5001C27.5667 23.6591 26.0743 22.1667 24.2334 22.1667C22.3924 22.1667 20.9 23.6591 20.9 25.5001C20.9 27.3411 22.3924 28.8334 24.2334 28.8334Z" fill="#F34A40"/>
<path d="M24.2334 13.8333C21.5962 13.8333 19.0184 14.6153 16.8258 16.0803C14.6331 17.5454 12.9241 19.6278 11.915 22.0641C10.9058 24.5005 10.6418 27.1813 11.1562 29.7678C11.6706 32.3542 12.9406 34.73 14.8053 36.5947C16.6699 38.4593 19.0458 39.7293 21.6322 40.2437C24.2186 40.7582 26.8994 40.4941 29.3358 39.4849C31.7722 38.4758 33.8545 36.7669 35.3196 34.5742C36.7847 32.3815 37.5666 29.8037 37.5666 27.1666C37.5666 23.6304 36.1619 20.2389 33.6614 17.7385C31.161 15.238 27.7695 13.8333 24.2334 13.8333ZM30.9 34.6833C30.65 33.1171 29.8499 31.6913 28.6433 30.6621C27.4366 29.6328 25.9026 29.0673 24.3166 29.0673C22.7307 29.0673 21.1966 29.6328 19.9901 30.6621C18.7834 31.6913 17.9833 33.1171 17.7334 34.6833C16.2018 33.3437 15.1152 31.5689 14.6188 29.5956C14.1224 27.6223 14.2398 25.5446 14.9553 23.6398C15.6707 21.7349 16.9502 20.0937 18.6229 18.9352C20.2956 17.7767 22.2819 17.156 24.3166 17.156C26.3514 17.156 28.3378 17.7767 30.0105 18.9352C31.6831 20.0937 32.9626 21.7349 33.6781 23.6398C34.3935 25.5446 34.511 27.6223 34.0146 29.5956C33.5182 31.5689 32.4316 33.3437 30.9 34.6833Z" fill="#F34A40"/>
<path d="M55.9 13.8333H42.5667C41.6462 13.8333 40.9 14.5794 40.9 15.4999V18.8333C40.9 19.7537 41.6462 20.4999 42.5667 20.4999H55.9C56.8205 20.4999 57.5667 19.7537 57.5667 18.8333V15.4999C57.5667 14.5794 56.8205 13.8333 55.9 13.8333Z" fill="#F34A40"/>
<path d="M74.2334 5.5H7.56671C6.24063 5.5 4.96886 6.02678 4.03118 6.96446C3.0935 7.90215 2.56671 9.17392 2.56671 10.5V57.1666C2.56671 58.4927 3.0935 59.7645 4.03118 60.7022C4.96886 61.6399 6.24063 62.1666 7.56671 62.1666H29.2334C29.1444 66.1114 27.5317 69.8683 24.7334 72.65C24.4993 72.8821 24.3394 73.1784 24.2737 73.5014C24.2081 73.8245 24.2397 74.1597 24.3646 74.4647C24.4895 74.7698 24.702 75.031 24.9753 75.2153C25.2486 75.3995 25.5704 75.4986 25.9 75.5H55.9C56.2311 75.5019 56.5552 75.4052 56.8311 75.2222C57.1069 75.0392 57.322 74.7782 57.449 74.4725C57.576 74.1667 57.609 73.8301 57.5439 73.5055C57.4788 73.181 57.3184 72.8831 57.0834 72.65C54.2789 69.871 52.6601 66.1137 52.5667 62.1666H74.2334C75.5595 62.1666 76.8312 61.6399 77.7689 60.7022C78.7066 59.7645 79.2334 58.4927 79.2334 57.1666V10.5C79.2334 9.17392 78.7066 7.90215 77.7689 6.96446C76.8312 6.02678 75.5595 5.5 74.2334 5.5ZM5.90005 10.5C5.90005 10.058 6.07564 9.63408 6.3882 9.32152C6.70077 9.00896 7.12469 8.83336 7.56671 8.83336H74.2334C74.6754 8.83336 75.0993 9.00896 75.4119 9.32152C75.7244 9.63408 75.9 10.058 75.9 10.5V45.5H5.90005V10.5ZM52.3834 72.1666H29.4167C31.4048 69.2047 32.4983 65.7332 32.5667 62.1666H49.2334C49.3018 65.7332 50.3953 69.2047 52.3834 72.1666ZM75.9 57.1666C75.9 57.6087 75.7244 58.0326 75.4119 58.3452C75.0993 58.6578 74.6754 58.8334 74.2334 58.8334H7.56671C7.12469 58.8334 6.70077 58.6578 6.3882 58.3452C6.07564 58.0326 5.90005 57.6087 5.90005 57.1666V48.8334H75.9V57.1666Z" fill="#FFF1F0"/>
<path d="M42.5667 55.5001H39.2334C38.7913 55.5001 38.3674 55.3245 38.0548 55.012C37.7422 54.6994 37.5667 54.2755 37.5667 53.8334C37.5667 53.3914 37.7422 52.9675 38.0548 52.6549C38.3674 52.3423 38.7913 52.1667 39.2334 52.1667H42.5667C43.0087 52.1667 43.4326 52.3423 43.7452 52.6549C44.0578 52.9675 44.2334 53.3914 44.2334 53.8334C44.2334 54.2755 44.0578 54.6994 43.7452 55.012C43.4326 55.3245 43.0087 55.5001 42.5667 55.5001Z" fill="#F8F9F9"/>
<path d="M45.9 33.8334H42.5667C42.1247 33.8334 41.7007 33.6578 41.3882 33.3452C41.0756 33.0326 40.9 32.6087 40.9 32.1666C40.9 31.7246 41.0756 31.3007 41.3882 30.9882C41.7007 30.6756 42.1247 30.5 42.5667 30.5H45.9C46.342 30.5 46.7659 30.6756 47.0785 30.9882C47.3911 31.3007 47.5667 31.7246 47.5667 32.1666C47.5667 32.6087 47.3911 33.0326 47.0785 33.3452C46.7659 33.6578 46.342 33.8334 45.9 33.8334Z" fill="#F34A40"/>
<path d="M62.5667 40.5001H42.5667C42.1247 40.5001 41.7007 40.3245 41.3882 40.0119C41.0756 39.6994 40.9 39.2755 40.9 38.8334C40.9 38.3914 41.0756 37.9675 41.3882 37.6549C41.7007 37.3423 42.1247 37.1667 42.5667 37.1667H62.5667C63.0087 37.1667 63.4327 37.3423 63.7452 37.6549C64.0578 37.9675 64.2334 38.3914 64.2334 38.8334C64.2334 39.2755 64.0578 39.6994 63.7452 40.0119C63.4327 40.3245 63.0087 40.5001 62.5667 40.5001Z" fill="#F34A40"/>
<path d="M69.2334 27.1666H42.5667C42.1247 27.1666 41.7007 26.991 41.3882 26.6785C41.0756 26.3659 40.9 25.942 40.9 25.4999C40.9 25.0579 41.0756 24.634 41.3882 24.3214C41.7007 24.0089 42.1247 23.8333 42.5667 23.8333H69.2334C69.6754 23.8333 70.0993 24.0089 70.4119 24.3214C70.7244 24.634 70.9 25.0579 70.9 25.4999C70.9 25.942 70.7244 26.3659 70.4119 26.6785C70.0993 26.991 69.6754 27.1666 69.2334 27.1666Z" fill="#F34A40"/>
<path d="M69.2334 33.8334H52.5667C52.1247 33.8334 51.7007 33.6578 51.3882 33.3452C51.0756 33.0326 50.9 32.6087 50.9 32.1666C50.9 31.7246 51.0756 31.3007 51.3882 30.9882C51.7007 30.6756 52.1247 30.5 52.5667 30.5H69.2334C69.6754 30.5 70.0993 30.6756 70.4119 30.9882C70.7244 31.3007 70.9 31.7246 70.9 32.1666C70.9 32.6087 70.7244 33.0326 70.4119 33.3452C70.0993 33.6578 69.6754 33.8334 69.2334 33.8334Z" fill="#F34A40"/>
</svg>
